<mxfile host="Electron" agent="Mozilla/5.0 (Windows NT 10.0; Win64; x64) AppleWebKit/537.36 (KHTML, like Gecko) draw.io/24.7.17 Chrome/128.0.6613.36 Electron/32.0.1 Safari/537.36" version="24.7.17">
  <diagram name="Страница — 1" id="d8nzEJ2zcpGzdaxowSs1">
    <mxGraphModel dx="674" dy="1193" grid="1" gridSize="10" guides="1" tooltips="1" connect="1" arrows="1" fold="1" page="1" pageScale="1" pageWidth="827" pageHeight="1169" math="0" shadow="0">
      <root>
        <mxCell id="0" />
        <mxCell id="1" parent="0" />
        <mxCell id="sRFXAXGEAmHEGnhNBkIj-64" style="edgeStyle=orthogonalEdgeStyle;rounded=0;orthogonalLoop=1;jettySize=auto;html=1;exitX=0.5;exitY=1;exitDx=0;exitDy=0;entryX=0.5;entryY=0;entryDx=0;entryDy=0;" edge="1" parent="1" source="sRFXAXGEAmHEGnhNBkIj-1">
          <mxGeometry relative="1" as="geometry">
            <mxPoint x="260" y="220" as="targetPoint" />
          </mxGeometry>
        </mxCell>
        <mxCell id="sRFXAXGEAmHEGnhNBkIj-1" value="Начало" style="ellipse;whiteSpace=wrap;html=1;" vertex="1" parent="1">
          <mxGeometry x="200" y="60" width="120" height="80" as="geometry" />
        </mxCell>
        <mxCell id="sRFXAXGEAmHEGnhNBkIj-9" style="edgeStyle=orthogonalEdgeStyle;rounded=0;orthogonalLoop=1;jettySize=auto;html=1;exitX=0.5;exitY=1;exitDx=0;exitDy=0;entryX=0.5;entryY=0;entryDx=0;entryDy=0;" edge="1" parent="1" source="sRFXAXGEAmHEGnhNBkIj-2" target="sRFXAXGEAmHEGnhNBkIj-6">
          <mxGeometry relative="1" as="geometry" />
        </mxCell>
        <mxCell id="sRFXAXGEAmHEGnhNBkIj-2" value="&lt;div&gt;cout &amp;lt;&amp;lt; &quot;Введите натуральное число больше 2: \n&quot;;&lt;/div&gt;" style="shape=parallelogram;perimeter=parallelogramPerimeter;whiteSpace=wrap;html=1;fixedSize=1;" vertex="1" parent="1">
          <mxGeometry x="90" y="220" width="340" height="60" as="geometry" />
        </mxCell>
        <mxCell id="sRFXAXGEAmHEGnhNBkIj-137" style="edgeStyle=orthogonalEdgeStyle;rounded=0;orthogonalLoop=1;jettySize=auto;html=1;exitX=0.5;exitY=1;exitDx=0;exitDy=0;entryX=0.5;entryY=0;entryDx=0;entryDy=0;" edge="1" parent="1" source="sRFXAXGEAmHEGnhNBkIj-6" target="sRFXAXGEAmHEGnhNBkIj-125">
          <mxGeometry relative="1" as="geometry" />
        </mxCell>
        <mxCell id="sRFXAXGEAmHEGnhNBkIj-6" value="cin &gt;&gt; n;" style="shape=parallelogram;perimeter=parallelogramPerimeter;whiteSpace=wrap;html=1;fixedSize=1;" vertex="1" parent="1">
          <mxGeometry x="90" y="320" width="340" height="60" as="geometry" />
        </mxCell>
        <mxCell id="sRFXAXGEAmHEGnhNBkIj-7" value="" style="endArrow=none;dashed=1;html=1;dashPattern=1 3;strokeWidth=2;rounded=0;" edge="1" parent="1">
          <mxGeometry width="50" height="50" relative="1" as="geometry">
            <mxPoint x="450" y="160" as="sourcePoint" />
            <mxPoint x="260" y="160" as="targetPoint" />
          </mxGeometry>
        </mxCell>
        <mxCell id="sRFXAXGEAmHEGnhNBkIj-8" value="&lt;div&gt;#include &amp;lt;iostream&amp;gt;&lt;/div&gt;&lt;div&gt;using namespace std;&lt;/div&gt;&lt;div&gt;&lt;br&gt;&lt;/div&gt;&lt;div&gt;int main()&lt;/div&gt;&lt;div&gt;{&lt;/div&gt;&lt;div&gt;&lt;span style=&quot;white-space-collapse: collapse;&quot;&gt;&lt;span style=&quot;white-space-collapse: preserve;&quot;&gt;&#x9;&lt;/span&gt;setlocale(LC_ALL, &quot;&quot;);&lt;/span&gt;&lt;/div&gt;&lt;div&gt;&lt;span style=&quot;white-space-collapse: collapse;&quot;&gt;&lt;span style=&quot;white-space-collapse: preserve;&quot;&gt;&#x9;&lt;/span&gt;int n;&lt;/span&gt;&lt;/div&gt;" style="strokeWidth=2;html=1;shape=mxgraph.flowchart.annotation_1;align=left;pointerEvents=1;" vertex="1" parent="1">
          <mxGeometry x="450" y="100" width="50" height="110" as="geometry" />
        </mxCell>
        <mxCell id="sRFXAXGEAmHEGnhNBkIj-17" value="Конец" style="ellipse;whiteSpace=wrap;html=1;" vertex="1" parent="1">
          <mxGeometry x="200" y="965.71" width="120" height="80" as="geometry" />
        </mxCell>
        <mxCell id="sRFXAXGEAmHEGnhNBkIj-26" value="" style="endArrow=none;dashed=1;html=1;dashPattern=1 3;strokeWidth=2;rounded=0;" edge="1" parent="1">
          <mxGeometry width="50" height="50" relative="1" as="geometry">
            <mxPoint x="450" y="930" as="sourcePoint" />
            <mxPoint x="260" y="930" as="targetPoint" />
          </mxGeometry>
        </mxCell>
        <mxCell id="sRFXAXGEAmHEGnhNBkIj-27" value="&lt;div&gt;&lt;span style=&quot;white-space-collapse: collapse;&quot;&gt;&lt;span style=&quot;white-space-collapse: preserve;&quot;&gt;&#x9;&lt;/span&gt;return 0;&lt;/span&gt;&lt;/div&gt;&lt;div&gt;}&lt;/div&gt;" style="strokeWidth=2;html=1;shape=mxgraph.flowchart.annotation_1;align=left;pointerEvents=1;" vertex="1" parent="1">
          <mxGeometry x="450" y="880" width="50" height="100" as="geometry" />
        </mxCell>
        <mxCell id="sRFXAXGEAmHEGnhNBkIj-56" style="edgeStyle=orthogonalEdgeStyle;rounded=0;orthogonalLoop=1;jettySize=auto;html=1;exitX=0.5;exitY=1;exitDx=0;exitDy=0;entryX=0;entryY=0.5;entryDx=0;entryDy=0;" edge="1" parent="1" source="sRFXAXGEAmHEGnhNBkIj-47">
          <mxGeometry relative="1" as="geometry">
            <mxPoint x="180" y="1110" as="targetPoint" />
            <Array as="points">
              <mxPoint x="120" y="1550" />
              <mxPoint x="10" y="1550" />
              <mxPoint x="10" y="1110" />
            </Array>
          </mxGeometry>
        </mxCell>
        <mxCell id="sRFXAXGEAmHEGnhNBkIj-167" style="edgeStyle=orthogonalEdgeStyle;rounded=0;orthogonalLoop=1;jettySize=auto;html=1;exitX=0.5;exitY=1;exitDx=0;exitDy=0;entryX=0.5;entryY=0;entryDx=0;entryDy=0;" edge="1" parent="1" source="sRFXAXGEAmHEGnhNBkIj-125" target="sRFXAXGEAmHEGnhNBkIj-166">
          <mxGeometry relative="1" as="geometry" />
        </mxCell>
        <mxCell id="sRFXAXGEAmHEGnhNBkIj-175" style="edgeStyle=orthogonalEdgeStyle;rounded=0;orthogonalLoop=1;jettySize=auto;html=1;exitX=1;exitY=0.5;exitDx=0;exitDy=0;entryX=0.5;entryY=0;entryDx=0;entryDy=0;" edge="1" parent="1" source="sRFXAXGEAmHEGnhNBkIj-125" target="sRFXAXGEAmHEGnhNBkIj-17">
          <mxGeometry relative="1" as="geometry">
            <Array as="points">
              <mxPoint x="410" y="470" />
              <mxPoint x="410" y="890" />
              <mxPoint x="260" y="890" />
            </Array>
          </mxGeometry>
        </mxCell>
        <mxCell id="sRFXAXGEAmHEGnhNBkIj-125" value="for (int i = 0; i &amp;lt; n; i++)" style="shape=hexagon;perimeter=hexagonPerimeter2;whiteSpace=wrap;html=1;fixedSize=1;" vertex="1" parent="1">
          <mxGeometry x="180" y="430" width="160" height="80" as="geometry" />
        </mxCell>
        <mxCell id="sRFXAXGEAmHEGnhNBkIj-170" style="edgeStyle=orthogonalEdgeStyle;rounded=0;orthogonalLoop=1;jettySize=auto;html=1;exitX=0.5;exitY=1;exitDx=0;exitDy=0;entryX=0.5;entryY=0;entryDx=0;entryDy=0;" edge="1" parent="1" source="sRFXAXGEAmHEGnhNBkIj-166" target="sRFXAXGEAmHEGnhNBkIj-169">
          <mxGeometry relative="1" as="geometry" />
        </mxCell>
        <mxCell id="sRFXAXGEAmHEGnhNBkIj-173" style="edgeStyle=orthogonalEdgeStyle;rounded=0;orthogonalLoop=1;jettySize=auto;html=1;exitX=1;exitY=0.5;exitDx=0;exitDy=0;" edge="1" parent="1" source="sRFXAXGEAmHEGnhNBkIj-166" target="sRFXAXGEAmHEGnhNBkIj-172">
          <mxGeometry relative="1" as="geometry">
            <Array as="points">
              <mxPoint x="360" y="585" />
              <mxPoint x="360" y="750" />
              <mxPoint x="260" y="750" />
            </Array>
          </mxGeometry>
        </mxCell>
        <mxCell id="sRFXAXGEAmHEGnhNBkIj-166" value="for (int j = 0; j &amp;lt;= i; j++)" style="shape=hexagon;perimeter=hexagonPerimeter2;whiteSpace=wrap;html=1;fixedSize=1;" vertex="1" parent="1">
          <mxGeometry x="180" y="545" width="160" height="80" as="geometry" />
        </mxCell>
        <mxCell id="sRFXAXGEAmHEGnhNBkIj-171" style="edgeStyle=orthogonalEdgeStyle;rounded=0;orthogonalLoop=1;jettySize=auto;html=1;exitX=0;exitY=0.5;exitDx=0;exitDy=0;entryX=0;entryY=0.5;entryDx=0;entryDy=0;" edge="1" parent="1" source="sRFXAXGEAmHEGnhNBkIj-169" target="sRFXAXGEAmHEGnhNBkIj-166">
          <mxGeometry relative="1" as="geometry">
            <Array as="points">
              <mxPoint x="160" y="700" />
              <mxPoint x="160" y="585" />
            </Array>
          </mxGeometry>
        </mxCell>
        <mxCell id="sRFXAXGEAmHEGnhNBkIj-169" value="cout &amp;lt;&amp;lt; &quot;* &quot;;" style="shape=parallelogram;perimeter=parallelogramPerimeter;whiteSpace=wrap;html=1;fixedSize=1;" vertex="1" parent="1">
          <mxGeometry x="200" y="670" width="120" height="60" as="geometry" />
        </mxCell>
        <mxCell id="sRFXAXGEAmHEGnhNBkIj-174" style="edgeStyle=orthogonalEdgeStyle;rounded=0;orthogonalLoop=1;jettySize=auto;html=1;exitX=0;exitY=0.5;exitDx=0;exitDy=0;entryX=0;entryY=0.5;entryDx=0;entryDy=0;" edge="1" parent="1" source="sRFXAXGEAmHEGnhNBkIj-172" target="sRFXAXGEAmHEGnhNBkIj-125">
          <mxGeometry relative="1" as="geometry">
            <Array as="points">
              <mxPoint x="90" y="800" />
              <mxPoint x="90" y="470" />
            </Array>
          </mxGeometry>
        </mxCell>
        <mxCell id="sRFXAXGEAmHEGnhNBkIj-172" value="cout &amp;lt;&amp;lt; endl;" style="shape=parallelogram;perimeter=parallelogramPerimeter;whiteSpace=wrap;html=1;fixedSize=1;" vertex="1" parent="1">
          <mxGeometry x="200" y="770" width="120" height="60" as="geometry" />
        </mxCell>
      </root>
    </mxGraphModel>
  </diagram>
</mxfile>
